<svg xmlns="http://www.w3.org/2000/svg" fill="none" height="1265" viewBox="0 0 1907 1265" width="1907" role="img" aria-labelledby="a3v7ppr1k4zgdxn9frlh0kgb4hnalex9" class="fill-current text-white w-10 h-10 ml-1 hover:text-indigo-200"><title id="a3v7ppr1k4zgdxn9frlh0kgb4hnalex9">Icons/logo</title><path clip-rule="evenodd" d="m880.796 255.871h145.414l-72.71 124.867zm-799.7409-255.871h-81.0551l32.4515 55.7311 11.5029 19.7451 107.9376 185.3748 584.696 1004.149 216.912-372.529 216.92 372.529 693.88-1191.6552 10.25-17.6032 32.45-55.73491223h-81.05l-85.38 146.62131223-73.36 125.997-189.28 325.077-307.51 528.108-176.394-302.929 67.944-116.677 64.5 110.769 43.95 75.485 519.65-892.45131223h-1473.136l519.661 892.45531223 43.951-75.489 41.709-71.638 12.514-21.489 1.799-3.089 44.44-76.316 73.246-125.806.004.008 149.572-256.878 43.95-75.484h-388.553l153.759 264.051-67.943 116.678-67.842-116.51.012-.024-14.522-24.936-.019.008-46.34-79.624-92.975-159.643h-81.05l262.211 450.326-67.927 116.654-59.31-101.862-338.774-581.7956 378.48.0039 19.604-.0039h831.909l-338.77 581.7916-59.31 101.869-67.93-116.657 262.21-450.326h-81.04l-547.069 939.529-307.51-528.104-189.282-325.077-158.741-272.62231223z" fill-rule="evenodd"></path></svg>