<?xml version="1.0" standalone="no"?>
<!DOCTYPE svg PUBLIC "-//W3C//DTD SVG 20010904//EN"
 "http://www.w3.org/TR/2001/REC-SVG-20010904/DTD/svg10.dtd">
<svg version="1.0" xmlns="http://www.w3.org/2000/svg"
 width="2048.000000pt" height="2048.000000pt" viewBox="0 0 2048.000000 2048.000000"
 preserveAspectRatio="xMidYMid meet">
<metadata>
Created by potrace 1.14, written by Peter Selinger 2001-2017
</metadata>
<g transform="translate(0.000000,2048.000000) scale(0.100000,-0.100000)"
fill="#000000" stroke="none">
<path d="M11455 20463 c-73 -29 -158 -61 -380 -143 -121 -45 -227 -84 -235
-87 -8 -4 -17 -7 -20 -8 -3 -1 -18 -7 -35 -14 -16 -6 -41 -16 -55 -21 -32 -11
-402 -150 -550 -205 -63 -24 -315 -119 -560 -210 -602 -226 -685 -257 -750
-280 -25 -8 -54 -20 -65 -25 -23 -11 -434 -164 -515 -192 -30 -11 -64 -24 -75
-29 -11 -5 -58 -22 -105 -39 -47 -17 -94 -35 -105 -40 -11 -5 -54 -21 -95 -35
-41 -14 -113 -41 -160 -60 -80 -31 -302 -114 -470 -176 -214 -78 -233 -87
-273 -124 -49 -45 -132 -122 -322 -300 -77 -71 -173 -161 -215 -200 -41 -38
-104 -98 -140 -131 -36 -34 -83 -78 -105 -99 -22 -20 -96 -90 -164 -154 -68
-64 -140 -131 -160 -150 -20 -18 -92 -86 -161 -151 -69 -65 -143 -135 -165
-155 -22 -21 -98 -93 -170 -160 -71 -68 -146 -137 -165 -155 -19 -18 -95 -89
-169 -159 -74 -69 -142 -133 -151 -141 -10 -8 -80 -74 -156 -146 -77 -72 -157
-148 -179 -169 -49 -45 -273 -256 -329 -308 -23 -21 -68 -64 -101 -95 -116
-108 -340 -318 -410 -384 -38 -36 -80 -75 -93 -86 -12 -11 -75 -69 -139 -128
-143 -134 -156 -146 -285 -265 -214 -198 -262 -242 -332 -301 -39 -33 -81 -70
-93 -83 -39 -40 -228 -367 -493 -850 -52 -93 -112 -204 -136 -245 l-42 -75
-613 -1 c-338 0 -632 -4 -654 -8 -22 -4 -40 -7 -40 -5 0 1 -9 -2 -20 -8 -11
-6 -37 -14 -57 -17 -54 -8 -62 -10 -68 -16 -10 -10 -75 -40 -120 -55 -114 -39
-317 -217 -413 -361 -26 -38 -47 -73 -47 -77 0 -4 -21 -51 -47 -105 l-48 -97
0 -315 0 -315 28 -52 c15 -29 27 -55 27 -58 0 -3 20 -48 45 -100 25 -52 45
-98 45 -103 0 -5 10 -22 22 -37 28 -35 86 -145 131 -245 26 -59 60 -162 69
-215 6 -27 12 -278 14 -556 5 -565 11 -505 -67 -649 -17 -30 -50 -92 -74 -138
l-44 -82 36 -102 35 -102 -6 -171 c-4 -93 -9 -201 -11 -240 -5 -89 -14 -268
-20 -415 -3 -63 -7 -153 -10 -200 -2 -47 -7 -148 -11 -225 -3 -77 -7 -167 -9
-200 -2 -33 -6 -125 -10 -205 -3 -80 -8 -174 -10 -210 -2 -36 -7 -128 -10
-205 -4 -77 -8 -176 -10 -220 -2 -44 -7 -136 -10 -205 -3 -69 -7 -163 -10
-210 -3 -47 -7 -137 -10 -200 -3 -63 -7 -162 -10 -220 -10 -211 -21 -424 -30
-630 -3 -58 -7 -150 -10 -205 -3 -55 -7 -152 -10 -215 -3 -63 -7 -151 -10
-195 -2 -44 -7 -145 -10 -225 -4 -80 -8 -174 -10 -210 -2 -36 -7 -128 -10
-205 -3 -77 -8 -167 -10 -200 -27 -422 -24 -745 10 -1040 3 -27 8 -72 10 -100
3 -27 12 -97 21 -155 8 -58 17 -120 20 -139 2 -19 13 -77 24 -130 10 -53 21
-110 24 -127 25 -145 146 -558 203 -694 8 -19 19 -44 23 -55 80 -203 194 -428
303 -600 155 -243 345 -466 567 -665 103 -92 405 -305 515 -362 231 -121 366
-182 545 -246 107 -38 323 -104 380 -116 14 -3 66 -15 115 -26 129 -29 100
-23 410 -76 17 -3 49 -7 73 -9 23 -2 55 -6 70 -9 15 -3 59 -8 97 -11 39 -3 88
-8 110 -11 76 -8 496 -31 670 -36 29 0 176 8 285 17 30 2 93 7 140 10 193 12
382 25 440 30 25 2 90 6 145 10 104 6 207 13 310 20 99 7 206 14 288 20 188
12 309 21 437 30 36 2 106 7 155 10 50 3 113 8 140 10 28 2 95 7 150 10 55 4
125 8 155 10 30 2 96 7 145 10 50 3 117 8 150 10 139 10 206 15 300 20 55 4
120 8 145 10 25 2 88 7 140 10 52 3 120 8 150 10 53 4 127 9 293 20 181 12
240 16 442 30 39 3 105 7 148 10 73 5 155 10 292 20 33 2 101 7 150 10 50 3
113 7 140 10 28 2 97 7 155 10 58 3 121 8 140 10 19 2 87 7 150 10 63 4 131 8
150 10 19 2 85 6 145 10 61 4 130 8 155 10 25 2 88 6 140 10 153 10 232 15
280 20 25 2 97 7 160 10 63 3 135 8 160 10 25 2 86 7 135 10 50 3 115 8 145
10 30 2 99 6 154 10 54 3 119 8 145 10 25 2 91 7 146 10 55 3 125 8 155 10 30
3 96 7 145 10 50 3 122 7 160 10 202 15 295 22 420 30 44 3 114 7 155 10 41 3
109 7 150 10 41 3 109 7 150 10 41 3 107 7 145 10 39 2 106 7 150 10 131 9
205 15 290 20 224 15 284 19 433 30 63 5 118 8 317 20 44 3 105 7 135 10 52 4
192 14 290 20 148 9 251 16 290 20 25 3 92 7 150 10 58 3 132 8 165 10 33 3
96 7 140 10 44 2 105 7 135 9 30 3 98 8 150 11 52 3 120 8 150 10 30 2 96 6
145 9 50 3 119 8 155 10 175 14 221 17 300 21 47 3 108 7 135 9 80 7 239 18
450 30 55 4 120 9 145 11 25 3 86 7 135 10 50 3 117 7 150 9 33 3 107 8 165
11 58 4 121 8 140 10 19 2 80 6 135 10 129 8 216 13 455 30 136 9 214 15 305
21 50 3 113 7 140 9 28 2 97 7 155 11 58 4 116 8 130 9 14 1 42 3 63 4 28 1
37 5 37 19 0 11 3 13 8 5 4 -6 7 46 7 115 0 70 4 168 8 217 5 50 10 115 12
145 7 107 17 235 20 270 2 19 6 76 9 125 4 50 8 110 11 135 2 25 7 79 10 120
7 101 14 203 20 270 2 30 7 91 10 135 3 44 7 105 10 135 3 30 7 82 9 115 3 33
8 96 11 140 3 44 8 103 10 130 5 60 13 174 20 270 3 39 8 99 11 135 3 36 7 94
10 130 2 36 6 88 9 115 2 28 7 91 10 140 4 50 8 106 10 125 3 32 14 185 20
270 1 19 5 73 9 120 4 47 9 112 12 145 10 143 15 203 19 255 3 30 7 91 10 135
8 112 14 193 20 245 2 25 7 86 10 135 3 50 7 115 10 145 4 52 9 108 20 258 3
37 8 96 10 132 3 36 8 97 10 135 3 39 7 95 10 125 21 250 22 274 30 400 4 58
8 116 10 130 2 14 7 68 10 120 4 52 8 111 10 130 2 19 6 80 10 135 4 55 8 116
10 135 2 19 6 76 10 125 3 50 8 110 10 135 3 25 7 79 10 120 7 101 14 195 19
255 3 28 7 91 10 140 4 50 8 110 11 135 2 25 7 83 11 130 3 47 14 110 25 140
11 30 21 64 23 75 2 11 9 34 16 50 7 17 16 46 21 65 4 19 17 69 28 110 20 78
22 84 45 215 23 129 27 148 30 154 4 6 15 81 22 141 2 19 6 60 10 90 7 68 12
447 15 1404 2 539 6 759 15 812 13 76 32 127 95 262 21 46 39 90 39 98 0 8 4
14 8 14 9 0 62 98 62 113 0 5 11 23 25 41 14 18 25 37 25 42 0 5 23 54 50 108
l49 99 1 317 0 318 -34 78 c-49 111 -114 231 -152 283 -27 35 -33 50 -29 80 2
20 6 77 10 126 3 50 8 110 10 135 2 25 7 81 10 125 7 99 14 193 21 265 2 30 7
93 9 140 3 47 7 105 10 130 2 25 7 81 10 125 5 80 12 166 20 260 6 67 14 183
20 280 3 44 7 96 10 115 3 19 7 80 10 135 3 55 8 111 10 125 2 14 7 75 10 135
4 61 8 121 10 135 2 14 7 68 10 120 3 52 8 111 10 130 28 262 28 1069 1 1240
-3 14 -7 52 -11 85 -3 33 -8 74 -11 90 -6 36 -10 61 -19 135 -4 30 -9 58 -11
61 -2 3 -6 21 -9 40 -17 104 -83 393 -110 479 -60 192 -178 507 -206 545 -4 6
-30 55 -59 110 -136 262 -311 497 -540 725 -501 501 -1128 814 -2010 1003
-221 48 -217 48 -1135 52 -484 2 -1546 7 -2360 11 -814 3 -1685 7 -1936 8
l-457 2 -41 27 c-22 15 -42 27 -43 26 -2 0 -21 -7 -43 -16z m2715 -1868 c13
-14 21 -25 18 -25 -2 0 -15 11 -28 25 -13 14 -21 25 -18 25 2 0 15 -11 28 -25z
m56 -46 c19 -22 19 -22 -3 -8 -13 8 -23 17 -23 21 0 12 6 9 26 -13z m124 -106
c0 -7 -75 54 -91 74 -8 10 10 -2 39 -26 28 -24 52 -46 52 -48z m40 -28 c13
-14 21 -25 18 -25 -2 0 -15 11 -28 25 -13 14 -21 25 -18 25 2 0 15 -11 28 -25z
m55 -45 c10 -11 16 -20 13 -20 -3 0 -13 9 -23 20 -10 11 -16 20 -13 20 3 0 13
-9 23 -20z m50 -40 c10 -11 16 -20 13 -20 -3 0 -13 9 -23 20 -10 11 -16 20
-13 20 3 0 13 -9 23 -20z m55 -45 c13 -14 21 -25 18 -25 -2 0 -15 11 -28 25
-13 14 -21 25 -18 25 2 0 15 -11 28 -25z m55 -45 c10 -11 16 -20 13 -20 -3 0
-13 9 -23 20 -10 11 -16 20 -13 20 3 0 13 -9 23 -20z m55 -45 c13 -14 21 -25
18 -25 -2 0 -15 11 -28 25 -13 14 -21 25 -18 25 2 0 15 -11 28 -25z m60 -50
c13 -14 21 -25 18 -25 -2 0 -15 11 -28 25 -13 14 -21 25 -18 25 2 0 15 -11 28
-25z m60 -50 c13 -14 21 -25 18 -25 -2 0 -15 11 -28 25 -13 14 -21 25 -18 25
2 0 15 -11 28 -25z m51 -42 c13 -16 12 -17 -3 -4 -17 13 -22 21 -14 21 2 0 10
-8 17 -17z m49 -38 c13 -14 21 -25 18 -25 -2 0 -15 11 -28 25 -13 14 -21 25
-18 25 2 0 15 -11 28 -25z m55 -45 c10 -11 16 -20 13 -20 -3 0 -13 9 -23 20
-10 11 -16 20 -13 20 3 0 13 -9 23 -20z m56 -47 c13 -16 12 -17 -3 -4 -10 7
-18 15 -18 17 0 8 8 3 21 -13z m34 -23 c3 -5 1 -10 -4 -10 -6 0 -11 5 -11 10
0 6 2 10 4 10 3 0 8 -4 11 -10z m70 -60 c10 -11 16 -20 13 -20 -3 0 -13 9 -23
20 -10 11 -16 20 -13 20 3 0 13 -9 23 -20z m60 -50 c10 -11 16 -20 13 -20 -3
0 -13 9 -23 20 -10 11 -16 20 -13 20 3 0 13 -9 23 -20z m50 -40 c10 -11 16
-20 13 -20 -3 0 -13 9 -23 20 -10 11 -16 20 -13 20 3 0 13 -9 23 -20z m70 -60
c10 -11 16 -20 13 -20 -3 0 -13 9 -23 20 -10 11 -16 20 -13 20 3 0 13 -9 23
-20z m50 -40 c10 -11 16 -20 13 -20 -3 0 -13 9 -23 20 -10 11 -16 20 -13 20 3
0 13 -9 23 -20z m50 -40 c10 -11 16 -20 13 -20 -3 0 -13 9 -23 20 -10 11 -16
20 -13 20 3 0 13 -9 23 -20z m61 -52 l29 -33 -32 29 c-18 17 -33 31 -33 33 0
8 8 1 36 -29z m55 -45 c13 -16 12 -17 -3 -4 -17 13 -22 21 -14 21 2 0 10 -8
17 -17z m44 -33 c10 -11 16 -20 13 -20 -3 0 -13 9 -23 20 -10 11 -16 20 -13
20 3 0 13 -9 23 -20z m60 -50 c10 -11 16 -20 13 -20 -3 0 -13 9 -23 20 -10 11
-16 20 -13 20 3 0 13 -9 23 -20z m55 -45 c13 -14 21 -25 18 -25 -2 0 -15 11
-28 25 -13 14 -21 25 -18 25 2 0 15 -11 28 -25z m74 -64 c-2 -3 -12 3 -22 13
-16 17 -16 18 5 5 12 -7 20 -15 17 -18z m41 -31 c10 -11 16 -20 13 -20 -3 0
-13 9 -23 20 -10 11 -16 20 -13 20 3 0 13 -9 23 -20z m100 -80 c10 -11 16 -20
13 -20 -3 0 -13 9 -23 20 -10 11 -16 20 -13 20 3 0 13 -9 23 -20z m66 -57 c13
-16 12 -17 -3 -4 -17 13 -22 21 -14 21 2 0 10 -8 17 -17z m44 -33 c10 -11 16
-20 13 -20 -3 0 -13 9 -23 20 -10 11 -16 20 -13 20 3 0 13 -9 23 -20z m60 -50
c10 -11 16 -20 13 -20 -3 0 -13 9 -23 20 -10 11 -16 20 -13 20 3 0 13 -9 23
-20z m56 -47 c13 -16 12 -17 -3 -4 -17 13 -22 21 -14 21 2 0 10 -8 17 -17z
m60 -50 c13 -16 12 -17 -3 -4 -10 7 -18 15 -18 17 0 8 8 3 21 -13z m94 -73
c10 -11 16 -20 13 -20 -3 0 -13 9 -23 20 -10 11 -16 20 -13 20 3 0 13 -9 23
-20z m116 -97 c13 -16 12 -17 -3 -4 -17 13 -22 21 -14 21 2 0 10 -8 17 -17z
m110 -90 c13 -16 12 -17 -3 -4 -10 7 -18 15 -18 17 0 8 8 3 21 -13z m50 -40
c13 -16 12 -17 -3 -4 -17 13 -22 21 -14 21 2 0 10 -8 17 -17z m100 -80 c13
-16 12 -17 -3 -4 -17 13 -22 21 -14 21 2 0 10 -8 17 -17z m240 -200 c13 -16
12 -17 -3 -4 -10 7 -18 15 -18 17 0 8 8 3 21 -13z m54 -43 c10 -11 16 -20 13
-20 -3 0 -13 9 -23 20 -10 11 -16 20 -13 20 3 0 13 -9 23 -20z m116 -97 c13
-16 12 -17 -3 -4 -17 13 -22 21 -14 21 2 0 10 -8 17 -17z m104 -83 c10 -11 16
-20 13 -20 -3 0 -13 9 -23 20 -10 11 -16 20 -13 20 3 0 13 -9 23 -20z m596
-487 c13 -16 12 -17 -3 -4 -17 13 -22 21 -14 21 2 0 10 -8 17 -17z m600 -490
c13 -16 12 -17 -3 -4 -17 13 -22 21 -14 21 2 0 10 -8 17 -17z"/>
</g>
</svg>
